<svg width="28" height="28" viewBox="0 0 28 28" fill="none" xmlns="http://www.w3.org/2000/svg">
<circle cx="14" cy="14" r="13.5" fill="#5CD9FF" stroke="#003D4B"/>
<circle cx="13.9999" cy="13.9999" r="9.88182" fill="#5CD9FF" stroke="#006277" stroke-width="0.6"/>
<path d="M10.9766 18.9708C10.7832 18.9708 10.6355 18.9403 10.5337 18.8792C10.4319 18.8283 10.3657 18.7519 10.3352 18.6501C10.3148 18.5381 10.3046 18.4108 10.3046 18.2683V8.98248C10.3046 8.85012 10.3199 8.73812 10.3505 8.64648C10.3912 8.54466 10.4574 8.46321 10.549 8.40211C10.6508 8.34102 10.7985 8.31048 10.9919 8.31048H14.3672C14.8661 8.31048 15.3192 8.38684 15.7265 8.53957C16.1439 8.68211 16.5054 8.89593 16.8108 9.18102C17.1163 9.46611 17.3505 9.82757 17.5134 10.2654C17.6865 10.693 17.773 11.1919 17.773 11.7621C17.773 12.1185 17.717 12.4901 17.605 12.877C17.493 13.2538 17.3199 13.6101 17.0857 13.9461C16.8617 14.2821 16.5715 14.5621 16.2152 14.7861C15.8588 15.0101 15.4261 15.1374 14.917 15.1679H11.6792V18.2836C11.6792 18.4261 11.6588 18.5483 11.6181 18.6501C11.5875 18.7519 11.5214 18.8283 11.4195 18.8792C11.3279 18.9403 11.1803 18.9708 10.9766 18.9708ZM17.5286 18.8028C17.3148 18.9454 17.1315 18.9912 16.9788 18.9403C16.8363 18.8894 16.6988 18.7672 16.5665 18.5738L14.1228 14.6639L15.6348 14.4348L17.7425 17.7948C17.8443 17.9578 17.9054 18.0952 17.9257 18.2072C17.9563 18.3192 17.9359 18.421 17.8646 18.5127C17.8035 18.6043 17.6915 18.701 17.5286 18.8028ZM11.6792 13.8239H14.7032C14.9374 13.8239 15.1563 13.7832 15.3599 13.7018C15.5635 13.6101 15.7417 13.4778 15.8945 13.3047C16.0472 13.1316 16.1694 12.9178 16.261 12.6632C16.3526 12.4087 16.3985 12.1032 16.3985 11.7468C16.3985 11.309 16.317 10.9374 16.1541 10.6319C16.0014 10.3265 15.7723 10.0974 15.4668 9.94466C15.1614 9.78175 14.7846 9.7003 14.3366 9.7003H11.6792V13.8239Z" fill="#005265"/>
</svg>
