<svg width="61" height="63" viewBox="0 0 61 63" fill="none" xmlns="http://www.w3.org/2000/svg">
<path d="M37.9797 26.4807L39.0008 25.2043C38.4514 24.7648 37.6824 24.7261 37.0917 25.1084L37.9797 26.4807ZM19.672 32.3653L18.0538 32.1342C17.9296 33.004 18.5151 33.8164 19.3796 33.9736L19.672 32.3653ZM25.5566 21.25L26.833 22.2711C27.2133 21.7957 27.298 21.1484 27.0527 20.5913C26.8074 20.0341 26.2728 19.6595 25.6654 19.619L25.5566 21.25ZM10.5182 23.2115L9.08085 22.433C8.74104 23.0603 8.84737 23.8356 9.34352 24.3482C9.83968 24.8609 10.611 24.9926 11.2492 24.6735L10.5182 23.2115ZM32.7489 14.0576L32.0462 15.5335C32.5853 15.7902 33.2216 15.7325 33.7058 15.3829C34.19 15.0333 34.445 14.4475 34.3709 13.8549L32.7489 14.0576ZM27.5182 1.63452L27.5959 0.00175619C26.986 -0.0272852 26.4108 0.285983 26.1044 0.814064C25.7979 1.34215 25.8113 1.997 26.1391 2.51211L27.5182 1.63452ZM41.2489 13.4038H39.6143C39.6143 14.0161 39.9565 14.577 40.501 14.8572C41.0454 15.1374 41.7008 15.0898 42.199 14.7339L41.2489 13.4038ZM58.9028 16.673L58.794 18.304C59.4523 18.3479 60.0724 17.9917 60.3663 17.4011C60.6601 16.8104 60.5701 16.101 60.138 15.6024L58.9028 16.673ZM43.2105 19.2884L42.4166 17.8595C41.8116 18.1956 41.4839 18.8763 41.5984 19.5588C41.7129 20.2414 42.2448 20.7778 42.9264 20.8981L43.2105 19.2884ZM46.4797 40.2114L44.8869 40.579C45.0468 41.2717 45.6361 41.7817 46.3446 41.8405C47.053 41.8992 47.7183 41.4933 47.9901 40.8364L46.4797 40.2114ZM34.5244 54.6061C34.8911 55.4311 35.8571 55.8026 36.682 55.4359C37.507 55.0693 37.8785 54.1033 37.5119 53.2783L36.0182 53.9422L34.5244 54.6061ZM34.1995 46.0961L32.5684 46.2031L34.1995 46.0961ZM51.7105 61.1345V62.7691H52.4961L52.9869 62.1557L51.7105 61.1345ZM3.9797 61.1345L2.89372 62.3562L3.35822 62.7691H3.9797V61.1345ZM19.3674 53.6735C19.219 54.564 19.8206 55.4062 20.7111 55.5546C21.6016 55.703 22.4438 55.1014 22.5922 54.2109L20.9798 53.9422L19.3674 53.6735ZM27.5183 31.4416L27.0268 29.8826L27.5183 31.4416ZM34.7451 50.0191L36.3413 49.6671L34.7451 50.0191ZM28.5394 45.4735C27.8345 44.9095 26.8058 45.0238 26.2419 45.7288C25.6779 46.4337 25.7922 47.4624 26.4971 48.0263L27.5183 46.7499L28.5394 45.4735ZM34.1546 42.8268L35.7882 42.8838L34.1546 42.8268ZM31.2895 39.0556C30.6511 38.4172 29.6162 38.4172 28.9778 39.0556C28.3395 39.694 28.3395 40.7289 28.9778 41.3673L30.1337 40.2114L31.2895 39.0556ZM10.5182 53.6153C9.61538 53.6153 8.88354 54.3471 8.88354 55.2499C8.88354 56.1527 9.61538 56.8845 10.5182 56.8845V55.2499V53.6153ZM11.1721 56.8845C12.0749 56.8845 12.8067 56.1527 12.8067 55.2499C12.8067 54.3471 12.0749 53.6153 11.1721 53.6153V55.2499V56.8845ZM19.672 32.3653L21.2902 32.5965C21.4561 31.4352 22.7767 27.3415 26.833 22.2711L25.5566 21.25L24.2802 20.2288C19.9673 25.62 18.3238 30.2442 18.0538 32.1342L19.672 32.3653ZM25.5566 21.25L25.6654 19.619C23.9535 19.5048 21.154 19.4719 18.2332 19.7364C15.3531 19.9972 12.1608 20.5626 9.78714 21.7495L10.5182 23.2115L11.2492 24.6735C13.0602 23.7681 15.7524 23.2437 18.5281 22.9923C21.2631 22.7447 23.8906 22.7771 25.4479 22.881L25.5566 21.25ZM10.5182 23.2115L11.9555 23.99C13.269 21.565 15.8958 18.2173 19.4152 16.1147C22.8614 14.0558 27.1305 13.1927 32.0462 15.5335L32.7489 14.0576L33.4517 12.5818C27.3827 9.69179 21.9532 10.7902 17.7385 13.3082C13.5969 15.7825 10.6006 19.6272 9.08085 22.433L10.5182 23.2115ZM32.7489 14.0576L34.3709 13.8549C34.1184 11.8347 32.6674 6.68156 28.8972 0.756937L27.5182 1.63452L26.1391 2.51211C29.692 8.09517 30.9436 12.7933 31.1269 14.2604L32.7489 14.0576ZM27.5182 1.63452L27.4404 3.26729C29.5261 3.36661 32.6652 4.03317 35.2281 5.64899C37.7233 7.22217 39.6143 9.63716 39.6143 13.4038H41.2489H42.8835C42.8835 8.27804 40.1976 4.91739 36.9717 2.88351C33.8134 0.892285 30.0871 0.120385 27.5959 0.00175619L27.5182 1.63452ZM41.2489 13.4038L42.199 14.7339C43.4685 13.8271 45.8343 12.8172 48.6141 12.9124C51.3243 13.0052 54.5535 14.1505 57.6675 17.7435L58.9028 16.673L60.138 15.6024C56.452 11.3493 52.3799 9.7702 48.726 9.64507C45.1418 9.52233 42.0806 10.8009 40.2988 12.0736L41.2489 13.4038ZM58.9028 16.673L59.0115 15.042C57.2808 14.9266 54.4323 14.9283 51.3996 15.2954C48.3937 15.6592 45.0427 16.4005 42.4166 17.8595L43.2105 19.2884L44.0043 20.7173C46.0859 19.5608 48.9464 18.8854 51.7925 18.5409C54.6117 18.1997 57.2555 18.2014 58.794 18.304L58.9028 16.673ZM43.2105 19.2884L42.9264 20.8981C44.2236 21.127 46.1109 22.1769 47.0455 24.8467C47.9979 27.5672 48.0303 32.189 44.9693 39.5864L46.4797 40.2114L47.9901 40.8364C51.206 33.0646 51.4563 27.5518 50.1312 23.7665C48.7882 19.9306 45.9025 18.1036 43.4945 17.6786L43.2105 19.2884ZM46.4797 40.2114L48.0724 39.8439C47.3717 36.8074 44.6228 29.7019 39.0008 25.2043L37.9797 26.4807L36.9586 27.7571C41.7981 31.6288 44.28 37.9489 44.8869 40.579L46.4797 40.2114ZM34.1995 46.0961L33.6272 47.6272C37.3558 49.0208 42.6381 51.4164 46.4331 54.0579C48.3535 55.3945 49.7293 56.6837 50.4011 57.8125C50.7258 58.358 50.8357 58.7827 50.8358 59.1034C50.8359 59.3948 50.7473 59.7218 50.434 60.1134L51.7105 61.1345L52.9869 62.1557C53.7198 61.2395 54.1055 60.2043 54.105 59.1021C54.1046 58.0291 53.739 57.0286 53.2104 56.1405C52.1757 54.4019 50.3336 52.7896 48.3007 51.3746C44.1893 48.5129 38.6238 46.0046 34.7718 44.5649L34.1995 46.0961ZM51.7105 61.1345V59.4999H3.9797V61.1345V62.7691H51.7105V61.1345ZM3.9797 61.1345L5.06568 59.9128C4.24403 59.1824 3.62029 58.2941 3.37974 57.4027C3.15813 56.5814 3.2285 55.6618 3.96672 54.6346C4.75068 53.5437 6.34802 52.2575 9.35134 51.0097C12.3383 49.7686 16.5955 48.6157 22.5333 47.7121L22.2874 46.0961L22.0415 44.48C15.9485 45.4072 11.4115 46.6135 8.097 47.9906C4.79888 49.3609 2.58756 50.9516 1.3119 52.7268C-0.00948977 54.5655 -0.249702 56.5011 0.223403 58.2544C0.677568 59.9374 1.75383 61.343 2.89372 62.3562L3.9797 61.1345ZM22.2874 46.0961L20.675 45.8274L19.3674 53.6735L20.9798 53.9422L22.5922 54.2109L23.8998 46.3648L22.2874 46.0961ZM37.9797 26.4807L37.0917 25.1084C34.9528 26.4924 31.0038 28.6289 27.0268 29.8826L27.5183 31.4416L28.0097 33.0006C32.3382 31.6361 36.5545 29.3499 38.8677 27.8531L37.9797 26.4807ZM27.5183 31.4416L27.0268 29.8826C24.3564 30.7245 21.871 31.1037 19.9644 30.7571L19.672 32.3653L19.3796 33.9736C22.0669 34.4622 25.1617 33.8984 28.0097 33.0006L27.5183 31.4416ZM22.2874 46.0961L23.8461 46.5885C24.9422 43.1193 27.4853 35.458 29.0059 32.1191L27.5183 31.4416L26.0307 30.7641C24.4128 34.3165 21.8121 42.1746 20.7287 45.6036L22.2874 46.0961ZM34.1995 46.0961L32.5684 46.2031C32.66 47.5993 32.8458 48.9972 33.1488 50.3712L34.7451 50.0191L36.3413 49.6671C36.078 48.473 35.9127 47.2405 35.8306 45.9891L34.1995 46.0961ZM34.7451 50.0191L33.1488 50.3712C33.4676 51.8168 33.9169 53.239 34.5244 54.6061L36.0182 53.9422L37.5119 53.2783C37.0031 52.1336 36.6183 50.9231 36.3413 49.6671L34.7451 50.0191ZM34.7451 50.0191L35.0115 48.4064C33.8804 48.2195 30.8757 47.3425 28.5394 45.4735L27.5183 46.7499L26.4971 48.0263C29.3917 50.3419 32.9714 51.3829 34.4786 51.6319L34.7451 50.0191ZM37.9797 26.4807L36.4937 25.7997C34.9008 29.2751 32.7616 35.8767 32.521 42.7698L34.1546 42.8268L35.7882 42.8838C36.0106 36.5121 38.0109 30.3358 39.4657 27.1618L37.9797 26.4807ZM34.1546 42.8268L32.521 42.7698C32.4813 43.9065 32.4931 45.0554 32.5684 46.2031L34.1995 46.0961L35.8306 45.9891C35.7631 44.9608 35.752 43.9219 35.7882 42.8838L34.1546 42.8268ZM34.1546 42.8268L34.9774 41.4144C34.4289 41.0949 33.5725 40.5826 32.7944 40.0894C32.4046 39.8424 32.0457 39.6072 31.7592 39.4076C31.6159 39.3078 31.4994 39.2229 31.4108 39.1543C31.3136 39.0791 31.2825 39.0486 31.2895 39.0556L30.1337 40.2114L28.9778 41.3673C29.2234 41.6129 29.5816 41.8749 29.8903 42.09C30.2315 42.3277 30.6346 42.5911 31.0444 42.8508C31.8654 43.3711 32.7579 43.905 33.3318 44.2393L34.1546 42.8268ZM10.5182 55.2499V56.8845H11.1721V55.2499V53.6153H10.5182V55.2499Z" fill="#0057B3"/>
</svg>
